<svg width="48" height="49" viewBox="0 0 48 49" fill="none" xmlns="http://www.w3.org/2000/svg">
<path d="M23.9799 48.0151C10.6497 48.0729 -0.311101 36.9773 0.00674301 23.4256C0.305323 10.5192 10.9964 -0.143023 24.2881 0.00145117C37.4545 0.145926 48.3479 11.1067 47.9915 24.6777C47.6544 37.5263 37.05 48.0825 23.9799 48.0151ZM2.92513 24.042C3.03107 36.1104 12.8168 45.4049 24.3748 45.2027C35.5667 45.0004 45.0538 35.8792 45.0538 24.0131C45.0538 11.9447 35.1911 2.61162 23.5946 2.83315C12.4026 3.03541 3.00218 12.1855 2.92513 24.042Z" fill="#25073C"/>
<path d="M18.9718 40.907C18.9718 35.234 18.9718 29.6091 18.9718 23.9264C17.7197 23.9264 16.5062 23.9264 15.2637 23.9264C15.2637 22.0001 15.2637 20.1316 15.2637 18.2053C15.4274 18.1956 15.5911 18.1764 15.7645 18.1764C16.6603 18.1764 17.5656 18.1571 18.4614 18.186C18.8563 18.1956 18.9911 18.0897 18.9815 17.6851C18.9622 16.2211 18.9622 14.7668 18.9718 13.3028C18.9815 11.6558 19.4438 10.1628 20.6189 8.96853C21.7554 7.81273 23.2098 7.18668 24.7893 7.09036C27.3321 6.94589 29.8845 6.96515 32.4369 6.91699C32.4658 6.91699 32.4946 6.94589 32.5524 6.97478C32.5524 8.91074 32.5524 10.8563 32.5524 12.8501C32.3694 12.8597 32.1961 12.8693 32.0323 12.8693C30.8765 12.8693 29.7207 12.8693 28.5649 12.8693C27.3995 12.879 26.7157 13.5724 26.7157 14.7186C26.7157 15.807 26.7157 16.905 26.7253 17.9934C26.7253 18.0223 26.7446 18.0511 26.7735 18.1571C28.6805 18.1571 30.6069 18.1571 32.6295 18.1571C32.3791 20.1123 32.1479 21.9809 31.8975 23.9168C30.1542 23.9168 28.4494 23.9168 26.6964 23.9168C26.6964 29.6187 26.6964 35.2629 26.6964 40.9263C24.1055 40.907 21.582 40.907 18.9718 40.907Z" fill="#25073C"/>
</svg>
