<svg width="48" height="36" viewBox="0 0 48 36" fill="none" xmlns="http://www.w3.org/2000/svg">
<path d="M38.4 0H9.6C4.30722 0 0 4.30714 0 9.6V25.6C0 30.8927 4.30722 35.2 9.6 35.2H38.4C43.6928 35.2 48 30.8927 48 25.6V9.6C48 4.30714 43.6928 0 38.4 0ZM45.8667 25.6C45.8667 29.7173 42.5173 33.0666 38.4 33.0666H9.6C5.48267 33.0666 2.13333 29.7173 2.13333 25.6V9.6C2.13333 5.48267 5.48267 2.13333 9.6 2.13333H38.4C42.5173 2.13333 45.8667 5.48267 45.8667 9.6V25.6ZM17.0667 26.6249L32.6987 17.601L17.0667 8.5749V26.6249ZM19.2 12.2699L28.432 17.6011L19.2 22.9301V12.2699Z" fill="#25073C"/>
</svg>
